<svg width="118" height="50" viewBox="0 0 118 50" fill="none" xmlns="http://www.w3.org/2000/svg">
<rect width="118" height="50" rx="25" fill="#95D1F2" fill-opacity="0.3"/>
<path d="M24.698 18L27.0313 20.3333H37.333V32H18.6663V18H24.698ZM25.6663 15.6667H18.6663C17.383 15.6667 16.3447 16.7167 16.3447 18L16.333 32C16.333 33.2833 17.383 34.3333 18.6663 34.3333H37.333C38.6163 34.3333 39.6663 33.2833 39.6663 32V20.3333C39.6663 19.05 38.6163 18 37.333 18H27.9997L25.6663 15.6667Z" fill="#1A30A5"/>
<path d="M61.384 19.64V31H60.28V25.688H53.544V31H52.424V19.64H53.544V24.696H60.28V19.64H61.384ZM67.4395 31.16C66.8422 31.16 66.2875 31.048 65.7755 30.824C65.2742 30.5893 64.8368 30.2747 64.4635 29.88C64.1008 29.4747 63.8182 29.016 63.6155 28.504C63.4128 27.9813 63.3115 27.432 63.3115 26.856C63.3115 26.2587 63.4128 25.704 63.6155 25.192C63.8182 24.6693 64.1062 24.2107 64.4795 23.816C64.8528 23.4107 65.2902 23.096 65.7915 22.872C66.3035 22.6373 66.8582 22.52 67.4555 22.52C68.0528 22.52 68.6022 22.6373 69.1035 22.872C69.6048 23.096 70.0422 23.4107 70.4155 23.816C70.7888 24.2107 71.0768 24.6693 71.2795 25.192C71.4822 25.704 71.5835 26.2587 71.5835 26.856C71.5835 27.432 71.4822 27.9813 71.2795 28.504C71.0768 29.016 70.7888 29.4747 70.4155 29.88C70.0528 30.2747 69.6155 30.5893 69.1035 30.824C68.6022 31.048 68.0475 31.16 67.4395 31.16ZM64.4155 26.872C64.4155 27.4907 64.5488 28.056 64.8155 28.568C65.0928 29.0693 65.4608 29.4693 65.9195 29.768C66.3782 30.056 66.8848 30.2 67.4395 30.2C67.9942 30.2 68.5008 30.0507 68.9595 29.752C69.4182 29.4533 69.7862 29.048 70.0635 28.536C70.3408 28.0133 70.4795 27.448 70.4795 26.84C70.4795 26.2213 70.3408 25.656 70.0635 25.144C69.7862 24.632 69.4182 24.2267 68.9595 23.928C68.5008 23.6293 67.9942 23.48 67.4395 23.48C66.8848 23.48 66.3782 23.6347 65.9195 23.944C65.4715 24.2533 65.1088 24.664 64.8315 25.176C64.5542 25.6773 64.4155 26.2427 64.4155 26.872ZM85.8031 31H84.7151V26.344C84.7151 25.3733 84.5605 24.6587 84.2511 24.2C83.9418 23.7413 83.4831 23.512 82.8751 23.512C82.2458 23.512 81.6805 23.736 81.1791 24.184C80.6885 24.632 80.3418 25.208 80.1391 25.912V31H79.0511V26.344C79.0511 25.3627 78.9018 24.648 78.6031 24.2C78.3045 23.7413 77.8458 23.512 77.2271 23.512C76.6085 23.512 76.0485 23.7307 75.5471 24.168C75.0458 24.6053 74.6938 25.1813 74.4911 25.896V31H73.4031V22.664H74.3951V24.552C74.7471 23.9013 75.1951 23.4 75.7391 23.048C76.2938 22.696 76.9071 22.52 77.5791 22.52C78.2725 22.52 78.8325 22.7173 79.2591 23.112C79.6858 23.5067 79.9471 24.024 80.0431 24.664C80.4271 23.96 80.8858 23.4267 81.4191 23.064C81.9631 22.7013 82.5765 22.52 83.2591 22.52C83.7285 22.52 84.1231 22.6053 84.4431 22.776C84.7738 22.9467 85.0351 23.192 85.2271 23.512C85.4298 23.8213 85.5738 24.2 85.6591 24.648C85.7551 25.0853 85.8031 25.576 85.8031 26.12V31ZM91.7063 31.16C91.1089 31.16 90.5543 31.048 90.0423 30.824C89.5303 30.5893 89.0876 30.2747 88.7143 29.88C88.3409 29.4747 88.0476 29.0107 87.8343 28.488C87.6316 27.9653 87.5303 27.4053 87.5303 26.808C87.5303 26.0293 87.7063 25.3147 88.0583 24.664C88.4209 24.0133 88.9169 23.496 89.5463 23.112C90.1756 22.7173 90.8903 22.52 91.6903 22.52C92.5116 22.52 93.2263 22.7173 93.8343 23.112C94.4529 23.5067 94.9383 24.0293 95.2903 24.68C95.6423 25.32 95.8183 26.024 95.8183 26.792C95.8183 26.8773 95.8183 26.9627 95.8183 27.048C95.8183 27.1227 95.8129 27.1813 95.8023 27.224H88.6663C88.7196 27.8213 88.8849 28.3547 89.1623 28.824C89.4503 29.2827 89.8183 29.6507 90.2663 29.928C90.7249 30.1947 91.2209 30.328 91.7543 30.328C92.2983 30.328 92.8103 30.1893 93.2903 29.912C93.7809 29.6347 94.1223 29.272 94.3143 28.824L95.2583 29.08C95.0876 29.4747 94.8263 29.832 94.4743 30.152C94.1223 30.472 93.7063 30.7227 93.2263 30.904C92.7569 31.0747 92.2503 31.16 91.7063 31.16ZM88.6343 26.44H94.7943C94.7516 25.832 94.5863 25.2987 94.2983 24.84C94.0209 24.3813 93.6529 24.024 93.1943 23.768C92.7463 23.5013 92.2503 23.368 91.7063 23.368C91.1623 23.368 90.6663 23.5013 90.2183 23.768C89.7703 24.024 89.4023 24.3867 89.1143 24.856C88.8369 25.3147 88.6769 25.8427 88.6343 26.44Z" fill="#1A30A5"/>
</svg>
