<svg class="w-100 h-100"  viewBox="0 0 51 50" xmlns="http://www.w3.org/2000/svg">
<path fill-rule="evenodd" clip-rule="evenodd" d="M26 13.5C26 13.2239 25.7761 13 25.5 13C25.2239 13 25 13.2239 25 13.5V15.3333C25 15.6095 25.2239 15.8333 25.5 15.8333C25.7761 15.8333 26 15.6095 26 15.3333V13.5ZM26 19C26 18.7239 25.7761 18.5 25.5 18.5C25.2239 18.5 25 18.7239 25 19V22.6667C25 22.9428 25.2239 23.1667 25.5 23.1667C25.7761 23.1667 26 22.9428 26 22.6667V19ZM26 26.3333C26 26.0572 25.7761 25.8333 25.5 25.8333C25.2239 25.8333 25 26.0572 25 26.3333V30C25 30.2761 25.2239 30.5 25.5 30.5C25.7761 30.5 26 30.2761 26 30V26.3333ZM26 33.6667C26 33.3905 25.7761 33.1667 25.5 33.1667C25.2239 33.1667 25 33.3905 25 33.6667L25 35.5C25 35.7761 25.2239 36 25.5 36C25.7761 36 26 35.7761 26 35.5L26 33.6667ZM5 13.3H17C19.2091 13.3 21 15.0909 21 17.3V32.85C21 35.0592 19.2091 36.85 17 36.85H5C2.79086 36.85 1 35.0592 1 32.85V17.3C1 15.0909 2.79086 13.3 5 13.3ZM5 15.3C3.89543 15.3 3 16.1955 3 17.3V32.85C3 33.9546 3.89543 34.85 5 34.85H17C18.1046 34.85 19 33.9546 19 32.85V17.3C19 16.1955 18.1046 15.3 17 15.3H5ZM34 13.3H46C48.2091 13.3 50 15.0909 50 17.3V32.85C50 35.0592 48.2091 36.85 46 36.85H34C31.7909 36.85 30 35.0592 30 32.85V17.3C30 15.0909 31.7909 13.3 34 13.3ZM34 15.3C32.8954 15.3 32 16.1955 32 17.3V32.85C32 33.9546 32.8954 34.85 34 34.85H46C47.1046 34.85 48 33.9546 48 32.85V17.3C48 16.1955 47.1046 15.3 46 15.3H34ZM10.7822 29.6392V28.5327C10.3382 28.5256 9.92822 28.4862 9.55225 28.4146C9.17985 28.3394 8.85758 28.2427 8.58545 28.1245V26.9805C8.86117 27.1094 9.20133 27.2257 9.60596 27.3296C10.0106 27.4334 10.4027 27.4925 10.7822 27.5068V25.4927C10.263 25.3172 9.8405 25.1346 9.51465 24.9448C9.19238 24.755 8.95605 24.5348 8.80566 24.2842C8.65527 24.0299 8.58008 23.7256 8.58008 23.3711C8.58008 23.0059 8.67139 22.6925 8.854 22.4312C9.0402 22.1662 9.29801 21.9567 9.62744 21.8027C9.96045 21.6488 10.3454 21.5575 10.7822 21.5288V20.6533H11.4805V21.5127C11.8779 21.5234 12.245 21.5682 12.5815 21.647C12.9217 21.7222 13.2458 21.8278 13.5537 21.9639L13.1616 22.9629C12.8931 22.8555 12.6138 22.7677 12.3237 22.6997C12.0337 22.6317 11.7526 22.5851 11.4805 22.5601V24.5259C11.9173 24.6691 12.3058 24.8231 12.646 24.9878C12.9897 25.1525 13.2583 25.3602 13.4517 25.6108C13.6486 25.8579 13.7471 26.182 13.7471 26.583C13.7471 27.1094 13.5537 27.5444 13.167 27.8882C12.7803 28.2284 12.2181 28.4325 11.4805 28.5005V29.6392H10.7822ZM11.4805 27.4639C11.8242 27.4209 12.0802 27.3314 12.2485 27.1953C12.4168 27.0557 12.501 26.8748 12.501 26.6528C12.501 26.5024 12.4652 26.3753 12.3936 26.2715C12.3255 26.1676 12.2163 26.0745 12.0659 25.9922C11.9191 25.9098 11.724 25.8293 11.4805 25.7505V27.4639ZM10.7822 24.2627V22.5815C10.5745 22.603 10.3991 22.646 10.2559 22.7104C10.1126 22.7749 10.0052 22.859 9.93359 22.9629C9.86198 23.0667 9.82617 23.1903 9.82617 23.3335C9.82617 23.491 9.8584 23.6253 9.92285 23.7363C9.9873 23.8473 10.0894 23.944 10.229 24.0264C10.3722 24.1087 10.5566 24.1875 10.7822 24.2627ZM39.7822 28.5327V29.6392H40.4805V28.5005C41.2181 28.4325 41.7803 28.2284 42.167 27.8882C42.5537 27.5444 42.7471 27.1094 42.7471 26.583C42.7471 26.182 42.6486 25.8579 42.4517 25.6108C42.2583 25.3602 41.9897 25.1525 41.646 24.9878C41.3058 24.8231 40.9173 24.6691 40.4805 24.5259V22.5601C40.7526 22.5851 41.0337 22.6317 41.3237 22.6997C41.6138 22.7677 41.8931 22.8555 42.1616 22.9629L42.5537 21.9639C42.2458 21.8278 41.9217 21.7222 41.5815 21.647C41.245 21.5682 40.8779 21.5234 40.4805 21.5127V20.6533H39.7822V21.5288C39.3454 21.5575 38.9604 21.6488 38.6274 21.8027C38.298 21.9567 38.0402 22.1662 37.854 22.4312C37.6714 22.6925 37.5801 23.0059 37.5801 23.3711C37.5801 23.7256 37.6553 24.0299 37.8057 24.2842C37.9561 24.5348 38.1924 24.755 38.5146 24.9448C38.8405 25.1346 39.263 25.3172 39.7822 25.4927V27.5068C39.4027 27.4925 39.0106 27.4334 38.606 27.3296C38.2013 27.2257 37.8612 27.1094 37.5854 26.9805V28.1245C37.8576 28.2427 38.1799 28.3394 38.5522 28.4146C38.9282 28.4862 39.3382 28.5256 39.7822 28.5327ZM41.2485 27.1953C41.0802 27.3314 40.8242 27.4209 40.4805 27.4639V25.7505C40.724 25.8293 40.9191 25.9098 41.0659 25.9922C41.2163 26.0745 41.3255 26.1676 41.3936 26.2715C41.4652 26.3753 41.501 26.5024 41.501 26.6528C41.501 26.8748 41.4168 27.0557 41.2485 27.1953ZM39.7822 22.5815V24.2627C39.5566 24.1875 39.3722 24.1087 39.229 24.0264C39.0894 23.944 38.9873 23.8473 38.9229 23.7363C38.8584 23.6253 38.8262 23.491 38.8262 23.3335C38.8262 23.1903 38.862 23.0667 38.9336 22.9629C39.0052 22.859 39.1126 22.7749 39.2559 22.7104C39.3991 22.646 39.5745 22.603 39.7822 22.5815Z"/>
</svg>
