<svg width="32" height="32" viewBox="0 0 32 32" fill="none" xmlns="http://www.w3.org/2000/svg">
<rect x="19" y="15" width="13" height="2" fill="#FFD600"/>
<path d="M3.35135 3.24324L9.08108 15.3514L0 29.0811L13.6216 32L17.4054 15.4015V0L3.35135 3.24324Z" fill="#27B1FF"/>
<path fill-rule="evenodd" clip-rule="evenodd" d="M14 20C17.3137 20 20 18.2091 20 16C20 13.7909 17.3137 12 14 12C10.6863 12 8 13.7909 8 16C8 18.2091 10.6863 20 14 20ZM13.5 16C15.9853 16 18 15.3284 18 14.5C18 13.6716 15.9853 13 13.5 13C11.0147 13 9 13.6716 9 14.5C9 15.3284 11.0147 16 13.5 16Z" fill="#FFD600"/>
<path d="M9.08122 15.2432L7.45959 12L17.4055 10.2703V15.2432H9.08122Z" fill="#27B1FF"/>
</svg>
