<svg width="32" height="32" viewBox="0 0 32 32" fill="none" xmlns="http://www.w3.org/2000/svg">
<rect x="19.3939" y="14.5457" width="12.6061" height="0.969697" fill="#F2EA2A"/>
<path d="M3.35135 3.24324L9.08108 15.3514L0 29.0811L13.6216 32L17.4054 15.4015V0L3.35135 3.24324Z" fill="#27B1FF"/>
<path fill-rule="evenodd" clip-rule="evenodd" d="M14.2702 17.8379C17.6735 17.8379 20.4324 16.6762 20.4324 15.2433C20.4324 13.8103 17.6735 12.6487 14.2702 12.6487C10.8669 12.6487 8.10803 13.8103 8.10803 15.2433C8.10803 16.6762 10.8669 17.8379 14.2702 17.8379ZM13.9218 16.7258C16.6187 16.7258 18.805 15.979 18.805 15.0578C18.805 14.1366 16.6187 13.3898 13.9218 13.3898C11.2249 13.3898 9.03857 14.1366 9.03857 15.0578C9.03857 15.979 11.2249 16.7258 13.9218 16.7258Z" fill="#F2EA2A"/>
<path d="M9.08122 15.2432L7.45959 12L17.4055 10.2703V15.2432H9.08122Z" fill="#27B1FF"/>
</svg>
